<svg width="292" height="48" viewBox="0 0 292 48" fill="none" xmlns="http://www.w3.org/2000/svg">
<path d="M11.7071 23.8354L0.107056 47.4586H4.64039C9.17372 47.4586 9.44039 47.1807 16.7737 31.8951L24.2404 16.3316L31.8404 31.4782C39.1737 46.6248 39.3071 46.7638 44.3737 47.1807L49.5737 47.5975L37.7071 23.9744C31.3071 10.9122 25.4404 0.212254 24.6404 0.212254C23.9737 0.212254 18.1071 10.9122 11.7071 23.8354Z" fill="white" stroke="white" stroke-width="0.133333"/>
<path d="M54.6404 23.8354V47.4586H59.307H63.9737V33.8405L64.107 20.3614L70.3737 27.7263C73.8404 31.6171 77.307 34.9522 78.2404 34.9522C79.0404 34.9522 82.3737 31.7561 85.4404 28.0042C88.507 24.1133 91.5737 21.0562 92.2404 21.0562C92.7737 21.0562 93.307 27.0315 93.307 34.2574V47.4586H97.307H101.307V23.8354C101.307 10.7732 100.774 0.212237 100.24 0.212237C99.5737 0.212237 94.3737 5.63167 88.6404 12.1628L78.2404 24.1133L67.707 12.1628C61.8404 5.63167 56.507 0.212237 55.8404 0.212237C55.1737 0.212237 54.6404 10.4953 54.6404 23.8354Z" fill="white" stroke="white" stroke-width="0.133333"/>
<path d="M119.04 23.1406C112.907 35.647 107.974 46.2079 107.974 46.6248C107.974 47.0417 109.974 47.4586 112.374 47.4586C116.507 47.4586 116.907 46.9027 124.107 31.8951L131.574 16.1926L139.174 31.8951C146.64 47.3196 146.64 47.4586 151.44 47.4586C154.107 47.4586 155.974 47.0417 155.707 46.3469C150.64 34.3963 132.774 0.212237 131.574 0.212237C130.64 0.212237 125.04 10.4953 119.04 23.1406Z" fill="white" stroke="white" stroke-width="0.133333"/>
<path d="M161.974 1.87975C161.574 2.85247 161.44 13.4134 161.574 25.225L161.974 46.7638H174.64C189.44 46.7638 196.107 44.1235 200.907 36.4807C205.174 29.9496 205.174 17.7212 200.907 11.1901C196.374 3.96415 189.44 1.18496 175.04 0.490157C165.307 -0.0656825 162.507 0.351197 161.974 1.87975ZM187.307 10.6342C197.04 15.4978 197.974 30.6444 188.907 36.3418C186.107 38.1483 182.24 39.121 177.707 39.121H170.64V23.8354V8.54982H176.774C180.107 8.54982 184.907 9.52254 187.307 10.6342Z" fill="white" stroke="white" stroke-width="0.133333"/>
<path d="M261.307 23.6964V47.4586H276.774H292.107L291.707 43.5677C291.307 39.8158 291.174 39.8158 281.04 39.3989L270.774 38.982L270.374 19.9445L269.974 0.907036L265.707 0.490156L261.307 0.0732771V23.6964Z" fill="white" stroke="white" stroke-width="0.133333"/>
<path d="M217.307 25.225L206.64 47.4586H217.974H229.307V25.225C229.307 12.9965 229.04 2.99143 228.64 2.99143C228.374 2.99143 223.307 12.9965 217.307 25.225Z" fill="white" stroke="white" stroke-width="0.133333"/>
<path d="M233.307 25.5029V47.4586H243.974C249.84 47.4586 254.64 47.1806 254.64 46.7638C254.64 45.6521 239.04 13.5524 235.974 8.2719L233.307 3.68623V25.5029Z" fill="white" stroke="white" stroke-width="0.133333"/>
</svg>
